<svg id="Layer_1" data-name="Layer 1" xmlns="http://www.w3.org/2000/svg" xmlns:xlink="http://www.w3.org/1999/xlink" viewBox="0 0 400 400"><defs><style>.cls-1{fill:url(#linear-gradient);}.cls-2{fill:url(#linear-gradient-2);}.cls-3{fill:url(#linear-gradient-3);}.cls-4{fill:#231f20;}</style><linearGradient id="linear-gradient" x1="129.55" y1="171.9" x2="322.55" y2="171.9" gradientUnits="userSpaceOnUse"><stop offset="0" stop-color="#21689a"/><stop offset="1"/></linearGradient><linearGradient id="linear-gradient-2" x1="86.45" y1="177.98" x2="233.58" y2="177.98" xlink:href="#linear-gradient"/><linearGradient id="linear-gradient-3" x1="112.19" y1="229.46" x2="297.15" y2="229.46" xlink:href="#linear-gradient"/></defs><title>Artboard 1</title><path class="cls-1" d="M134.58,149.7c-12.9,33.33-.16,71,29,95.76-19.38-37.76-14.66-80.84,13.8-103.13,33.29-26.06,86.41-13.8,118.66,27.39a110.78,110.78,0,0,1,22.19,48.92c15.46-43.33-11.7-93.47-61.51-112.74C206.18,86.35,151.51,106,134.58,149.7Z"/><path class="cls-2" d="M233.58,240.47c-37.76,19.38-80.84,14.66-103.13-13.8-26.06-33.29-13.8-86.42,27.38-118.66a110.89,110.89,0,0,1,48.93-22.2C163.43,70.36,113.29,97.52,94,147.32c-19.55,50.52.06,105.2,43.8,122.13C171.15,282.35,208.86,269.61,233.58,240.47Z"/><path class="cls-3" d="M202.58,142.59c40.4,13,67.53,46.8,63.16,82.69-5.11,42-51.34,70.86-103.26,64.54a110.76,110.76,0,0,1-50.29-18.9c19.7,41.57,74.37,57.81,123.21,36.22,49.55-21.9,74.34-74.42,55.38-117.33C276.34,157.13,240.66,139.47,202.58,142.59Z"/><circle class="cls-4" cx="246.51" cy="66.92" r="23.65"/><circle class="cls-4" cx="70.62" cy="253.12" r="23.65"/><circle class="cls-4" cx="322.55" cy="263.73" r="23.65"/></svg>